<svg width="182" height="182" viewBox="0 0 182 182" fill="none" xmlns="http://www.w3.org/2000/svg">
<path fill-rule="evenodd" clip-rule="evenodd" d="M88.4835 38.3789C72.557 18.612 44.1035 17.4222 26.7556 35.7978C14.6014 48.6719 11.4416 67.4648 17.276 83.4168H48.3756L68.2363 43.7099L90.9863 89.2028L102.361 66.4599L110.84 83.4168H164.697C170.531 67.4651 167.372 48.6719 155.218 35.7978C137.869 17.4226 109.416 18.612 93.4895 38.3789L90.9867 41.4853L88.4835 38.3789ZM155.419 98.5832H103.256L90.9863 123.123L68.2363 77.623L57.7564 98.5832H26.5548C26.6213 98.6548 26.6883 98.7262 26.7556 98.7976L90.9543 166.799L90.986 166.833H90.9863L155.217 98.7976C155.284 98.7265 155.351 98.655 155.418 98.5832" fill="#DFEBFA"/>
</svg>
