<svg width="150" height="150" viewBox="0 0 150 150" fill="none" xmlns="http://www.w3.org/2000/svg">
<g opacity="0.2">
<path fill-rule="evenodd" clip-rule="evenodd" d="M59.9404 34.1685L52.3987 26.6269L44.8464 34.1685L15.8532 63.1724C11.2021 67.7829 7.50737 73.2666 4.98124 79.3088C2.45512 85.3511 1.14732 91.8327 1.13293 98.3817C1.11855 104.931 2.39785 111.418 4.89741 117.471C7.39697 123.525 11.0675 129.025 15.6984 133.655C20.3293 138.286 25.8292 141.957 31.8825 144.456C37.9357 146.956 44.4231 148.235 50.9721 148.221C57.5211 148.207 64.0028 146.899 70.045 144.373C76.0872 141.846 81.571 138.152 86.1814 133.501L115.185 104.507L122.727 96.9551L115.185 89.4135L59.9297 34.1685H59.9404Z" fill="#A7E9D1"/>
<path fill-rule="evenodd" clip-rule="evenodd" d="M98.3575 1.28076C85.1709 1.28094 72.5243 6.51839 63.1987 15.8414L44.8726 34.1674L37.3203 41.7197L44.8726 49.2614L100.107 104.506L107.649 112.048L115.201 104.506L133.527 86.1696C140.48 79.2141 145.215 70.3531 147.132 60.7069C149.05 51.0607 148.064 41.0625 144.3 31.9765C140.536 22.8905 134.162 15.1247 125.984 9.66095C117.806 4.1972 108.192 1.2809 98.3575 1.28076Z" fill="#33CC95"/>
</g>
</svg>
