<svg width="74" height="74" viewBox="0 0 74 74" fill="none" xmlns="http://www.w3.org/2000/svg">
<path fillRule="evenodd" clipRule="evenodd" d="M28.4054 39.3125C28.1464 41.699 27.4558 43.6045 26.2533 45.2941C24.6407 47.548 21.9366 49.654 17.4658 51.8925C17.179 52.0185 16.9208 52.2016 16.7068 52.4305C16.4929 52.6594 16.3278 52.9294 16.2214 53.2241C16.115 53.5188 16.0696 53.832 16.0879 54.1448C16.1062 54.4576 16.188 54.7634 16.3281 55.0436C16.4682 55.3238 16.6638 55.5727 16.903 55.775C17.1422 55.9774 17.42 56.129 17.7196 56.2207C18.0192 56.3124 18.3343 56.3422 18.6458 56.3084C18.9573 56.2747 19.2587 56.1779 19.5316 56.0241C24.3108 53.6376 27.7734 51.1185 30.0149 47.9766C32.2997 44.7823 33.1445 41.184 33.1445 37V23.125C33.1445 21.6939 32.576 20.3214 31.5641 19.3095C30.5522 18.2976 29.1798 17.7291 27.7487 17.7291H15.4154C13.9843 17.7291 12.6118 18.2976 11.5999 19.3095C10.588 20.3214 10.0195 21.6939 10.0195 23.125V33.9166C10.0195 36.8951 12.4369 39.3125 15.4154 39.3125H28.4054ZM59.2388 39.3125C58.9798 41.699 58.2891 43.6045 57.0866 45.2941C55.474 47.548 52.7699 49.654 48.2991 51.8925C48.0123 52.0185 47.7541 52.2016 47.5402 52.4305C47.3263 52.6594 47.1611 52.9294 47.0547 53.2241C46.9483 53.5188 46.9029 53.832 46.9212 54.1448C46.9396 54.4576 47.0213 54.7634 47.1614 55.0436C47.3015 55.3238 47.4971 55.5727 47.7363 55.775C47.9755 55.9774 48.2534 56.129 48.553 56.2207C48.8526 56.3124 49.1677 56.3422 49.4791 56.3084C49.7906 56.2747 50.092 56.1779 50.3649 56.0241C55.1441 53.6376 58.6067 51.1185 60.8483 47.9766C63.133 44.7823 63.9779 41.184 63.9779 37V23.125C63.9779 21.6939 63.4094 20.3214 62.3975 19.3095C61.3855 18.2976 60.0131 17.7291 58.582 17.7291H46.2487C44.8176 17.7291 43.4452 18.2976 42.4333 19.3095C41.4214 20.3214 40.8529 21.6939 40.8529 23.125V33.9166C40.8529 36.8951 43.2702 39.3125 46.2487 39.3125H59.2388Z" fill="#DFE9DC"/>
</svg>
