<svg width="221" height="224" viewBox="0 0 221 224" fill="none" xmlns="http://www.w3.org/2000/svg">
<path d="M201.413 134.505L215.415 120.503L201.413 106.501L166.457 141.457L82.5425 57.5422L117.499 22.5859L103.497 8.58386L89.4945 22.5859L75.4925 8.58386L54.5383 29.538L40.5362 15.5359L26.5341 29.538L40.5362 43.5401L19.582 64.4943L33.5841 78.4964L19.582 92.4985L33.5841 106.501L68.5404 71.5443L152.455 155.459L117.499 190.415L131.501 204.417L145.503 190.415L159.505 204.417L180.459 183.463L194.461 197.465L208.463 183.463L194.461 169.461L215.415 148.507L201.413 134.505Z" fill="#246CE6" fill-opacity="0.08"/>
</svg>
